<svg xmlns="http://www.w3.org/2000/svg" viewBox="0 0 32 32" width="32" height="32">
  <defs>
    <!-- Gradient for modern tech look -->
    <linearGradient id="brickGradient" x1="0%" y1="0%" x2="100%" y2="100%">
      <stop offset="0%" style="stop-color:#3b82f6;stop-opacity:1" />
      <stop offset="100%" style="stop-color:#1e40af;stop-opacity:1" />
    </linearGradient>
    <linearGradient id="studGradient" x1="0%" y1="0%" x2="100%" y2="100%">
      <stop offset="0%" style="stop-color:#60a5fa;stop-opacity:1" />
      <stop offset="100%" style="stop-color:#3b82f6;stop-opacity:1" />
    </linearGradient>
  </defs>
  
  <!-- Main brick body with 3D effect -->
  <rect x="4" y="12" width="24" height="16" fill="url(#brickGradient)" rx="2"/>
  
  <!-- 3D top face -->
  <polygon points="4,12 6,8 30,8 28,12" fill="#60a5fa"/>
  
  <!-- 3D right face -->
  <polygon points="28,12 30,8 30,24 28,28" fill="#2563eb"/>
  
  <!-- Characteristic brick studs (2x4 brick pattern) -->
  <!-- Top row studs -->
  <circle cx="9" cy="10" r="2.5" fill="url(#studGradient)" stroke="#1e40af" stroke-width="0.5"/>
  <circle cx="15" cy="10" r="2.5" fill="url(#studGradient)" stroke="#1e40af" stroke-width="0.5"/>
  <circle cx="21" cy="10" r="2.5" fill="url(#studGradient)" stroke="#1e40af" stroke-width="0.5"/>
  <circle cx="27" cy="10" r="2.5" fill="url(#studGradient)" stroke="#1e40af" stroke-width="0.5"/>
  
  <!-- Bottom row studs -->
  <circle cx="9" cy="16" r="2.5" fill="url(#studGradient)" stroke="#1e40af" stroke-width="0.5"/>
  <circle cx="15" cy="16" r="2.5" fill="url(#studGradient)" stroke="#1e40af" stroke-width="0.5"/>
  <circle cx="21" cy="16" r="2.5" fill="url(#studGradient)" stroke="#1e40af" stroke-width="0.5"/>
  <circle cx="27" cy="16" r="2.5" fill="url(#studGradient)" stroke="#1e40af" stroke-width="0.5"/>
  
  <!-- Nano-tech accent: subtle circuit lines -->
  <path d="M6 20 L12 20 M12 18 L12 22 M16 20 L22 20" stroke="#93c5fd" stroke-width="0.5" opacity="0.6"/>
  
  <!-- Small "nano" identifier dot -->
  <circle cx="26" cy="25" r="1" fill="#fbbf24" opacity="0.8"/>
</svg> 